<mxfile host="app.diagrams.net" modified="2024-06-07T18:49:45.684Z" agent="Mozilla/5.0 (Windows NT 10.0; Win64; x64) AppleWebKit/537.36 (KHTML, like Gecko) Chrome/125.0.0.0 Safari/537.36" etag="oTDyGps8qMDZPdMT6b3h" version="24.5.2" type="device">
  <diagram name="Page-1" id="cpVl-XdMm6i_dnP8wX1L">
    <mxGraphModel dx="2528" dy="930" grid="1" gridSize="12" guides="1" tooltips="1" connect="1" arrows="1" fold="1" page="0" pageScale="1" pageWidth="827" pageHeight="1169" background="none" math="0" shadow="0">
      <root>
        <mxCell id="0" />
        <mxCell id="1" parent="0" />
        <mxCell id="C7wA58M1KJfgh3evg-o2-19" style="edgeStyle=orthogonalEdgeStyle;rounded=0;orthogonalLoop=1;jettySize=auto;html=1;exitX=0.5;exitY=1;exitDx=0;exitDy=0;entryX=0.5;entryY=0;entryDx=0;entryDy=0;fontFamily=Times New Roman;endArrow=none;endFill=0;" edge="1" parent="1" source="fNZFB94BEyN8GhcsSaSw-3" target="C7wA58M1KJfgh3evg-o2-9">
          <mxGeometry relative="1" as="geometry" />
        </mxCell>
        <mxCell id="C7wA58M1KJfgh3evg-o2-39" value="&lt;div style=&quot;font-size: 12px;&quot;&gt;&lt;font&gt;Handles&lt;/font&gt;&lt;/div&gt;" style="edgeLabel;html=1;align=center;verticalAlign=middle;resizable=0;points=[];fontFamily=Times New Roman;" vertex="1" connectable="0" parent="C7wA58M1KJfgh3evg-o2-19">
          <mxGeometry x="0.9195" y="-2" relative="1" as="geometry">
            <mxPoint x="2" y="-3" as="offset" />
          </mxGeometry>
        </mxCell>
        <mxCell id="C7wA58M1KJfgh3evg-o2-20" style="edgeStyle=orthogonalEdgeStyle;rounded=0;orthogonalLoop=1;jettySize=auto;html=1;exitX=0.5;exitY=1;exitDx=0;exitDy=0;entryX=0.5;entryY=0;entryDx=0;entryDy=0;fontFamily=Times New Roman;endArrow=none;endFill=0;" edge="1" parent="1" source="fNZFB94BEyN8GhcsSaSw-3" target="C7wA58M1KJfgh3evg-o2-7">
          <mxGeometry relative="1" as="geometry" />
        </mxCell>
        <mxCell id="C7wA58M1KJfgh3evg-o2-38" value="&lt;div style=&quot;font-size: 12px;&quot;&gt;&lt;font&gt;Components&lt;/font&gt;&lt;/div&gt;" style="edgeLabel;html=1;align=center;verticalAlign=middle;resizable=0;points=[];fontFamily=Times New Roman;" vertex="1" connectable="0" parent="C7wA58M1KJfgh3evg-o2-20">
          <mxGeometry x="0.8854" y="1" relative="1" as="geometry">
            <mxPoint x="-1" y="-2" as="offset" />
          </mxGeometry>
        </mxCell>
        <mxCell id="C7wA58M1KJfgh3evg-o2-22" style="edgeStyle=orthogonalEdgeStyle;rounded=0;orthogonalLoop=1;jettySize=auto;html=1;exitX=0.5;exitY=1;exitDx=0;exitDy=0;fontFamily=Times New Roman;endArrow=none;endFill=0;" edge="1" parent="1" source="fNZFB94BEyN8GhcsSaSw-3" target="C7wA58M1KJfgh3evg-o2-5">
          <mxGeometry relative="1" as="geometry" />
        </mxCell>
        <mxCell id="C7wA58M1KJfgh3evg-o2-37" value="&lt;div style=&quot;font-size: 12px;&quot;&gt;&lt;font&gt;Components&lt;/font&gt;&lt;/div&gt;" style="edgeLabel;html=1;align=center;verticalAlign=middle;resizable=0;points=[];fontFamily=Times New Roman;" vertex="1" connectable="0" parent="C7wA58M1KJfgh3evg-o2-22">
          <mxGeometry x="0.813" relative="1" as="geometry">
            <mxPoint y="2" as="offset" />
          </mxGeometry>
        </mxCell>
        <mxCell id="C7wA58M1KJfgh3evg-o2-23" style="edgeStyle=orthogonalEdgeStyle;rounded=0;orthogonalLoop=1;jettySize=auto;html=1;exitX=0.5;exitY=1;exitDx=0;exitDy=0;entryX=0.5;entryY=0;entryDx=0;entryDy=0;fontFamily=Times New Roman;endArrow=none;endFill=0;" edge="1" parent="1" source="fNZFB94BEyN8GhcsSaSw-3" target="C7wA58M1KJfgh3evg-o2-3">
          <mxGeometry relative="1" as="geometry" />
        </mxCell>
        <mxCell id="fNZFB94BEyN8GhcsSaSw-3" value="&lt;font&gt;Fog Layer&lt;/font&gt;" style="rounded=0;whiteSpace=wrap;html=1;fontFamily=Times New Roman;" parent="1" vertex="1">
          <mxGeometry x="-798" y="477.24" width="108" height="36" as="geometry" />
        </mxCell>
        <mxCell id="fNZFB94BEyN8GhcsSaSw-5" value="&lt;div&gt;&lt;font&gt;Tags&lt;/font&gt;&lt;/div&gt;" style="rounded=0;whiteSpace=wrap;html=1;fontFamily=Times New Roman;" parent="1" vertex="1">
          <mxGeometry x="-630" y="477.24" width="108" height="36" as="geometry" />
        </mxCell>
        <mxCell id="fNZFB94BEyN8GhcsSaSw-6" value="&lt;div&gt;&lt;font&gt;Sensors&lt;/font&gt;&lt;/div&gt;" style="rounded=0;whiteSpace=wrap;html=1;fontFamily=Times New Roman;" parent="1" vertex="1">
          <mxGeometry x="-462" y="477.24" width="108" height="36" as="geometry" />
        </mxCell>
        <mxCell id="fNZFB94BEyN8GhcsSaSw-7" value="&lt;div&gt;&lt;font&gt;Smart Objects&lt;/font&gt;&lt;/div&gt;" style="rounded=0;whiteSpace=wrap;html=1;fontFamily=Times New Roman;" parent="1" vertex="1">
          <mxGeometry x="-294" y="477.24" width="108" height="36" as="geometry" />
        </mxCell>
        <mxCell id="fNZFB94BEyN8GhcsSaSw-40" style="edgeStyle=orthogonalEdgeStyle;rounded=0;orthogonalLoop=1;jettySize=auto;html=1;exitX=0.5;exitY=1;exitDx=0;exitDy=0;endArrow=none;endFill=0;fontFamily=Times New Roman;" parent="1" source="fNZFB94BEyN8GhcsSaSw-19" target="fNZFB94BEyN8GhcsSaSw-3" edge="1">
          <mxGeometry relative="1" as="geometry" />
        </mxCell>
        <mxCell id="fNZFB94BEyN8GhcsSaSw-42" style="edgeStyle=orthogonalEdgeStyle;rounded=0;orthogonalLoop=1;jettySize=auto;html=1;exitX=0.5;exitY=1;exitDx=0;exitDy=0;endArrow=none;endFill=0;fontFamily=Times New Roman;" parent="1" source="fNZFB94BEyN8GhcsSaSw-19" target="fNZFB94BEyN8GhcsSaSw-5" edge="1">
          <mxGeometry relative="1" as="geometry" />
        </mxCell>
        <mxCell id="C7wA58M1KJfgh3evg-o2-34" value="&lt;div style=&quot;font-size: 12px;&quot;&gt;&lt;font style=&quot;font-size: 12px;&quot;&gt;Components&lt;/font&gt;&lt;/div&gt;" style="edgeLabel;html=1;align=center;verticalAlign=middle;resizable=0;points=[];fontFamily=Times New Roman;" vertex="1" connectable="0" parent="fNZFB94BEyN8GhcsSaSw-42">
          <mxGeometry x="0.8057" y="1" relative="1" as="geometry">
            <mxPoint x="-1" y="-17" as="offset" />
          </mxGeometry>
        </mxCell>
        <mxCell id="fNZFB94BEyN8GhcsSaSw-43" style="edgeStyle=orthogonalEdgeStyle;rounded=0;orthogonalLoop=1;jettySize=auto;html=1;exitX=0.5;exitY=1;exitDx=0;exitDy=0;endArrow=none;endFill=0;fontFamily=Times New Roman;" parent="1" source="fNZFB94BEyN8GhcsSaSw-19" target="fNZFB94BEyN8GhcsSaSw-6" edge="1">
          <mxGeometry relative="1" as="geometry" />
        </mxCell>
        <mxCell id="C7wA58M1KJfgh3evg-o2-35" value="&lt;div&gt;&lt;font&gt;Components&lt;/font&gt;&lt;/div&gt;" style="edgeLabel;html=1;align=center;verticalAlign=middle;resizable=0;points=[];fontFamily=Times New Roman;" vertex="1" connectable="0" parent="fNZFB94BEyN8GhcsSaSw-43">
          <mxGeometry x="0.819" y="-1" relative="1" as="geometry">
            <mxPoint x="1" y="-17" as="offset" />
          </mxGeometry>
        </mxCell>
        <mxCell id="fNZFB94BEyN8GhcsSaSw-44" style="edgeStyle=orthogonalEdgeStyle;rounded=0;orthogonalLoop=1;jettySize=auto;html=1;exitX=0.5;exitY=1;exitDx=0;exitDy=0;endArrow=none;endFill=0;fontFamily=Times New Roman;" parent="1" source="fNZFB94BEyN8GhcsSaSw-19" target="fNZFB94BEyN8GhcsSaSw-7" edge="1">
          <mxGeometry relative="1" as="geometry" />
        </mxCell>
        <mxCell id="C7wA58M1KJfgh3evg-o2-36" value="&lt;div style=&quot;font-size: 12px;&quot;&gt;&lt;font&gt;Components&lt;/font&gt;&lt;/div&gt;" style="edgeLabel;html=1;align=center;verticalAlign=middle;resizable=0;points=[];fontFamily=Times New Roman;" vertex="1" connectable="0" parent="fNZFB94BEyN8GhcsSaSw-44">
          <mxGeometry x="0.9253" y="1" relative="1" as="geometry">
            <mxPoint x="-1" y="-27" as="offset" />
          </mxGeometry>
        </mxCell>
        <mxCell id="fNZFB94BEyN8GhcsSaSw-19" value="&lt;div&gt;&lt;font&gt;Things Layer&lt;/font&gt;&lt;/div&gt;" style="rounded=0;whiteSpace=wrap;html=1;fontFamily=Times New Roman;" parent="1" vertex="1">
          <mxGeometry x="-552" y="240" width="96" height="24" as="geometry" />
        </mxCell>
        <mxCell id="C7wA58M1KJfgh3evg-o2-31" style="edgeStyle=orthogonalEdgeStyle;rounded=0;orthogonalLoop=1;jettySize=auto;html=1;exitX=0.5;exitY=1;exitDx=0;exitDy=0;fontFamily=Times New Roman;endArrow=none;endFill=0;" edge="1" parent="1" source="C7wA58M1KJfgh3evg-o2-3" target="C7wA58M1KJfgh3evg-o2-17">
          <mxGeometry relative="1" as="geometry" />
        </mxCell>
        <mxCell id="C7wA58M1KJfgh3evg-o2-44" value="&lt;div&gt;Stores&lt;/div&gt;" style="edgeLabel;html=1;align=center;verticalAlign=middle;resizable=0;points=[];fontFamily=Times New Roman;" vertex="1" connectable="0" parent="C7wA58M1KJfgh3evg-o2-31">
          <mxGeometry x="0.9126" relative="1" as="geometry">
            <mxPoint y="-14" as="offset" />
          </mxGeometry>
        </mxCell>
        <mxCell id="C7wA58M1KJfgh3evg-o2-33" style="edgeStyle=orthogonalEdgeStyle;rounded=0;orthogonalLoop=1;jettySize=auto;html=1;exitX=0.5;exitY=1;exitDx=0;exitDy=0;fontFamily=Times New Roman;endArrow=none;endFill=0;" edge="1" parent="1" source="C7wA58M1KJfgh3evg-o2-3" target="C7wA58M1KJfgh3evg-o2-13">
          <mxGeometry relative="1" as="geometry" />
        </mxCell>
        <mxCell id="C7wA58M1KJfgh3evg-o2-40" value="&lt;div&gt;Distributed&lt;/div&gt;" style="edgeLabel;html=1;align=center;verticalAlign=middle;resizable=0;points=[];fontFamily=Times New Roman;" vertex="1" connectable="0" parent="C7wA58M1KJfgh3evg-o2-33">
          <mxGeometry x="0.4228" y="1" relative="1" as="geometry">
            <mxPoint x="-1" y="23" as="offset" />
          </mxGeometry>
        </mxCell>
        <mxCell id="C7wA58M1KJfgh3evg-o2-47" style="edgeStyle=orthogonalEdgeStyle;rounded=0;orthogonalLoop=1;jettySize=auto;html=1;exitX=0.5;exitY=1;exitDx=0;exitDy=0;" edge="1" parent="1" source="C7wA58M1KJfgh3evg-o2-3" target="C7wA58M1KJfgh3evg-o2-15">
          <mxGeometry relative="1" as="geometry" />
        </mxCell>
        <mxCell id="C7wA58M1KJfgh3evg-o2-48" value="&lt;font face=&quot;Times New Roman&quot;&gt;Processes&lt;/font&gt;" style="edgeLabel;html=1;align=center;verticalAlign=middle;resizable=0;points=[];" vertex="1" connectable="0" parent="C7wA58M1KJfgh3evg-o2-47">
          <mxGeometry x="0.5949" y="-1" relative="1" as="geometry">
            <mxPoint x="1" y="39" as="offset" />
          </mxGeometry>
        </mxCell>
        <mxCell id="C7wA58M1KJfgh3evg-o2-3" value="&lt;div&gt;&lt;font&gt;Cloud Layer&lt;/font&gt;&lt;/div&gt;" style="rounded=0;whiteSpace=wrap;html=1;fontFamily=Times New Roman;" vertex="1" parent="1">
          <mxGeometry x="-798" y="703.6500000000001" width="108" height="36" as="geometry" />
        </mxCell>
        <mxCell id="C7wA58M1KJfgh3evg-o2-5" value="&lt;div&gt;&lt;font&gt;Fog Nodes&lt;/font&gt;&lt;/div&gt;" style="rounded=0;whiteSpace=wrap;html=1;fontFamily=Times New Roman;" vertex="1" parent="1">
          <mxGeometry x="-630" y="703.6500000000001" width="108" height="36" as="geometry" />
        </mxCell>
        <mxCell id="C7wA58M1KJfgh3evg-o2-7" value="&lt;div&gt;&lt;font&gt;Schedulers&lt;/font&gt;&lt;/div&gt;" style="rounded=0;whiteSpace=wrap;html=1;fontFamily=Times New Roman;" vertex="1" parent="1">
          <mxGeometry x="-462" y="703.6500000000001" width="108" height="36" as="geometry" />
        </mxCell>
        <mxCell id="C7wA58M1KJfgh3evg-o2-9" value="&lt;div&gt;&lt;font&gt;Latency-Sensitive Applications&lt;/font&gt;&lt;/div&gt;" style="rounded=0;whiteSpace=wrap;html=1;fontFamily=Times New Roman;" vertex="1" parent="1">
          <mxGeometry x="-294" y="703.6500000000001" width="108" height="36" as="geometry" />
        </mxCell>
        <mxCell id="C7wA58M1KJfgh3evg-o2-13" value="&lt;div&gt;&lt;font&gt;Cloud Servers&lt;/font&gt;&lt;/div&gt;" style="rounded=0;whiteSpace=wrap;html=1;fontFamily=Times New Roman;" vertex="1" parent="1">
          <mxGeometry x="-798" y="949.97" width="108" height="36" as="geometry" />
        </mxCell>
        <mxCell id="C7wA58M1KJfgh3evg-o2-15" value="&lt;div&gt;&lt;font&gt;Heterogeneous Data&lt;/font&gt;&lt;/div&gt;" style="rounded=0;whiteSpace=wrap;html=1;fontFamily=Times New Roman;" vertex="1" parent="1">
          <mxGeometry x="-630" y="949.97" width="108" height="36" as="geometry" />
        </mxCell>
        <mxCell id="C7wA58M1KJfgh3evg-o2-17" value="&lt;font&gt;Data Storage&lt;/font&gt;" style="rounded=0;whiteSpace=wrap;html=1;fontFamily=Times New Roman;" vertex="1" parent="1">
          <mxGeometry x="-462" y="949.97" width="108" height="36" as="geometry" />
        </mxCell>
      </root>
    </mxGraphModel>
  </diagram>
</mxfile>
